<svg width="135" height="136" viewBox="0 0 135 136" fill="none" xmlns="http://www.w3.org/2000/svg">
<circle cx="67.4998" cy="67.5" r="6.98276" fill="white"/>
<path d="M71.018 6.60986L69.4742 9.10171L68.1277 8.9685L73.2451 0.742668L75.2958 0.94553L78.7023 10.0146L77.3434 9.88016L76.3177 7.13413L71.018 6.60986ZM71.6691 5.57653L75.8817 5.99325L74.2044 1.51119L71.6691 5.57653Z" fill="white"/>
<path d="M87.1904 11.2943L86.8959 12.3463L80.357 10.5159L80.6514 9.46391L83.7476 10.3306L85.5646 3.83942L82.7379 6.79944L81.5066 6.45477L85.0424 2.80376L86.967 3.34251L84.9191 10.6585L87.1904 11.2943Z" fill="white"/>
<path d="M93.6859 10.722L89.4958 13.296L88.1894 12.6613L92.9751 9.74185L92.4554 5.07302L93.7619 5.70768L94.2079 9.76108L96.5081 10.8785L100.272 8.87012L101.634 9.5319L97.3678 11.7792L98.0489 17.4511L96.7201 16.8056L96.1759 11.9316L93.6859 10.722Z" fill="white"/>
<path d="M113.295 26.6193C112.402 27.2099 111.488 27.4029 110.552 27.1985C109.622 26.9881 108.692 26.4411 107.762 25.5574C107.198 25.0215 106.766 24.4677 106.464 23.8958C106.163 23.324 105.99 22.7547 105.946 22.188C105.908 21.6153 105.999 21.051 106.219 20.4952C106.439 19.9393 106.789 19.4094 107.268 18.9055L107.422 18.7435C107.918 18.2215 108.44 17.8336 108.99 17.5796C109.54 17.3255 110.099 17.2059 110.667 17.2207C111.241 17.2295 111.818 17.3728 112.399 17.6507C112.985 17.9226 113.56 18.3264 114.124 18.8623C114.604 19.3184 114.994 19.7797 115.292 20.2462C115.597 20.7185 115.799 21.1904 115.899 21.662C116.011 22.1333 116.02 22.6043 115.926 23.075C115.833 23.5457 115.628 24.0075 115.312 24.4605L114.34 23.5369C114.502 23.246 114.603 22.9361 114.641 22.6073C114.691 22.2782 114.677 21.9449 114.598 21.6074C114.531 21.2696 114.394 20.9336 114.186 20.5993C113.99 20.2648 113.727 19.9408 113.397 19.6272C112.96 19.2111 112.513 18.9122 112.057 18.7306C111.608 18.5431 111.164 18.4578 110.725 18.4748C110.286 18.4919 109.856 18.6082 109.434 18.8239C109.024 19.0392 108.637 19.3388 108.272 19.7228C107.924 20.0887 107.656 20.479 107.468 20.8936C107.285 21.3139 107.197 21.7434 107.202 22.1823C107.207 22.6212 107.312 23.0635 107.517 23.509C107.727 23.9485 108.051 24.3764 108.489 24.7925C109.155 25.4253 109.824 25.821 110.495 25.9795C111.178 26.1377 111.793 26.0488 112.341 25.7129L113.295 26.6193Z" fill="white"/>
<path d="M115.97 30.2389L113.076 30.706L112.294 29.6017L121.861 28.0756L123.051 29.7574L118.434 38.2741L117.645 37.1597L119.047 34.5852L115.97 30.2389ZM117.177 30.0534L119.623 33.5082L121.909 29.3039L117.177 30.0534Z" fill="white"/>
<path d="M122.569 39.5755L119.675 40.8889L119.172 39.7811L127.085 36.1899L129.466 41.435C129.654 41.8494 129.768 42.2519 129.809 42.6423C129.858 43.0293 129.826 43.3892 129.713 43.722C129.612 44.059 129.428 44.365 129.162 44.6402C128.899 44.9229 128.553 45.1617 128.124 45.3567C127.702 45.5297 127.307 45.6185 126.936 45.6231C126.565 45.6277 126.228 45.5539 125.922 45.4016C125.62 45.257 125.345 45.041 125.096 44.7539C124.848 44.4668 124.631 44.1198 124.447 43.7128L122.569 39.5755ZM123.564 39.1241L125.421 43.2161C125.643 43.706 125.949 44.0397 126.339 44.2173C126.729 44.3949 127.168 44.3726 127.658 44.1503C128.14 43.9314 128.447 43.6151 128.577 43.2015C128.715 42.7845 128.673 42.3311 128.45 41.8412L126.593 37.7491L123.564 39.1241Z" fill="white"/>
<path d="M126.374 57.0664L125.315 57.333L123.361 49.568L124.421 49.3015L125.242 52.564L131.55 50.9769L130.729 47.7144L131.788 47.4479L133.742 55.2128L132.683 55.4794L131.847 52.1567L125.538 53.7438L126.374 57.0664Z" fill="white"/>
<path d="M133.55 63.4024L125.973 63.9594L125.884 62.7461L133.46 62.1891L133.177 58.3388L134.267 58.2588L134.923 67.185L133.833 67.2651L133.55 63.4024Z" fill="white"/>
<path d="M128.636 71.8891L126.164 70.3147L126.314 68.9699L134.476 74.1882L134.248 76.2362L125.137 79.5308L125.288 78.1737L128.047 77.1819L128.636 71.8891ZM129.662 72.5528L129.193 76.7599L133.695 75.138L129.662 72.5528Z" fill="white"/>
<path d="M123.606 88.4563L122.559 88.1455L124.656 81.0765L132.987 83.5487L132.641 84.715L125.358 82.5535L123.606 88.4563Z" fill="white"/>
<path d="M120.378 98.6644L118.871 96.15L119.607 95.0143L124.571 103.333L123.451 105.063L113.829 103.933L114.571 102.787L117.482 103.134L120.378 98.6644ZM120.998 99.7168L118.696 103.269L123.448 103.834L120.998 99.7168Z" fill="white"/>
<path d="M108.795 110.907L107.994 110.163L112.614 105.187L113.415 105.93L111.227 108.286L116.168 112.872L114.829 109.004L115.699 108.067L117.327 112.882L115.968 114.346L110.4 109.178L108.795 110.907Z" fill="white"/>
<path d="M106.343 116.947L105.962 112.044L107.122 111.17L107.54 116.761L111.932 118.426L110.772 119.299L106.961 117.849L104.918 119.387L104.99 123.653L103.78 124.564L103.724 119.742L98.3651 117.763L99.5452 116.875L104.132 118.612L106.343 116.947Z" fill="white"/>
<path d="M83.2572 127.148C83.1394 126.085 83.3852 125.183 83.9946 124.444C84.6067 123.713 85.5181 123.135 86.7289 122.711C87.4632 122.455 88.1536 122.323 88.7999 122.316C89.4463 122.309 90.0316 122.415 90.5557 122.635C91.0825 122.863 91.5429 123.202 91.9369 123.651C92.331 124.101 92.6428 124.654 92.8723 125.31L92.9461 125.521C93.1839 126.2 93.2902 126.843 93.2651 127.448C93.24 128.053 93.0912 128.605 92.8185 129.103C92.5485 129.61 92.1573 130.058 91.6449 130.448C91.1351 130.845 90.5131 131.172 89.7788 131.429C89.1539 131.648 88.5657 131.783 88.0142 131.836C87.4549 131.892 86.9427 131.856 86.4775 131.729C86.0073 131.613 85.5842 131.406 85.2081 131.108C84.832 130.81 84.5148 130.417 84.2563 129.929L85.5218 129.486C85.7065 129.763 85.9363 129.994 86.2112 130.179C86.481 130.373 86.7841 130.513 87.1204 130.597C87.4516 130.692 87.8132 130.723 88.2053 130.691C88.5924 130.669 89.0007 130.584 89.4304 130.433C90.0006 130.234 90.4705 129.973 90.84 129.651C91.2123 129.336 91.491 128.98 91.6762 128.582C91.8613 128.184 91.9544 127.748 91.9552 127.275C91.951 126.812 91.8614 126.33 91.6865 125.83C91.5198 125.353 91.2951 124.937 91.0124 124.58C90.7218 124.225 90.3801 123.95 89.9872 123.755C89.5944 123.559 89.153 123.45 88.6633 123.429C88.1763 123.415 87.6476 123.508 87.0774 123.707C86.2103 124.011 85.5529 124.425 85.1053 124.95C84.6525 125.485 84.4505 126.073 84.4992 126.714L83.2572 127.148Z" fill="white"/>
<path d="M78.8139 127.866L79.7258 125.08L81.0657 124.892L78.0352 134.093L75.9946 134.38L70.5431 126.372L71.8953 126.182L73.5404 128.608L78.8139 127.866ZM78.4252 129.024L74.2334 129.614L76.9215 133.573L78.4252 129.024Z" fill="white"/>
<path d="M67.4033 129.451L67.561 126.277L68.776 126.337L68.3448 135.016L62.5919 134.73C62.1373 134.708 61.7271 134.625 61.3613 134.483C60.9951 134.349 60.6898 134.155 60.4455 133.903C60.1925 133.658 60.0045 133.355 59.8817 132.992C59.7506 132.629 59.6967 132.212 59.7201 131.741C59.7592 131.288 59.8616 130.895 60.0272 130.563C60.1929 130.232 60.4133 129.965 60.6884 129.764C60.9554 129.561 61.2733 129.416 61.6424 129.326C62.0114 129.237 62.4191 129.203 62.8654 129.225L67.4033 129.451ZM67.3491 130.542L62.8608 130.319C62.3235 130.292 61.8867 130.411 61.5504 130.676C61.2141 130.941 61.0326 131.343 61.0059 131.88C60.9796 132.409 61.1204 132.826 61.4284 133.131C61.736 133.445 62.1584 133.615 62.6957 133.642L67.1839 133.865L67.3491 130.542Z" fill="white"/>
<path d="M50.1261 124.843L50.3727 123.778L58.173 125.586L57.9264 126.65L54.6491 125.89L53.181 132.227L56.4583 132.987L56.2118 134.051L48.4115 132.244L48.658 131.18L51.9958 131.953L53.4639 125.616L50.1261 124.843Z" fill="white"/>
<path d="M41.1894 128.32L44.1619 121.328L45.2815 121.804L42.309 128.796L45.8619 130.306L45.4344 131.312L37.1976 127.81L37.625 126.804L41.1894 128.32Z" fill="white"/>
<path d="M35.9811 120.109L38.5139 118.633L39.6403 119.383L31.2609 124.244L29.5453 123.103L30.7938 113.496L31.9306 114.252L31.5475 117.159L35.9811 120.109ZM34.9212 120.716L31.397 118.371L30.7745 123.116L34.9212 120.716Z" fill="white"/>
<path d="M23.5461 108.041L24.3015 107.252L29.6285 112.35L23.62 118.628L22.7412 117.787L27.9943 112.298L23.5461 108.041Z" fill="white"/>
<path d="M15.9308 100.517L18.8556 100.32L19.5316 101.492L9.86448 102.124L8.83495 100.339L14.2227 92.2873L14.9049 93.4702L13.2702 95.9034L15.9308 100.517ZM14.7117 100.589L12.5968 96.9223L9.9304 100.896L14.7117 100.589Z" fill="white"/>
<path d="M10.3162 84.6252L11.343 84.2523L13.6609 90.6348L12.6341 91.0077L11.5366 87.9857L5.20083 90.2866L9.25307 90.8621L9.68953 92.0639L4.66269 91.3141L3.98045 89.4355L11.1214 86.8422L10.3162 84.6252Z" fill="white"/>
<path d="M6.06747 79.6637L10.5991 81.5734L10.8431 83.0052L5.68397 80.8121L2.18946 83.9516L1.94538 82.5198L4.98225 79.7983L4.5525 77.2775L0.729134 75.3855L0.47462 73.8925L4.7847 76.0541L9.00105 72.1997L9.24931 73.6559L5.60225 76.9348L6.06747 79.6637Z" fill="white"/>
<path d="M7.57762 54.3813C8.57725 54.763 9.26639 55.3938 9.64505 56.2739C10.0155 57.1528 10.1122 58.2274 9.93506 59.4979C9.82764 60.2684 9.6292 60.9426 9.33972 61.5206C9.05024 62.0986 8.68784 62.5703 8.25251 62.9357C7.80899 63.3001 7.29722 63.5546 6.7172 63.6993C6.13717 63.8441 5.5029 63.8685 4.81439 63.7725L4.59308 63.7416C3.87998 63.6422 3.26017 63.443 2.73366 63.144C2.20714 62.8449 1.7845 62.4601 1.46574 61.9895C1.13878 61.5178 0.919226 60.965 0.807071 60.331C0.68672 59.6959 0.680254 58.9931 0.787673 58.2226C0.879093 57.5669 1.02752 56.9817 1.23294 56.4673C1.43951 55.9446 1.70546 55.5054 2.0308 55.1496C2.34909 54.7846 2.72676 54.503 3.16382 54.3049C3.60087 54.1068 4.0956 54.0045 4.64801 53.9979L4.46288 55.3258C4.13179 55.3632 3.82138 55.4619 3.53166 55.6221C3.23489 55.7729 2.97225 55.9786 2.74373 56.2392C2.50816 56.4905 2.31491 56.7978 2.16398 57.1611C2.00601 57.5151 1.89559 57.9175 1.83274 58.3683C1.74932 58.9666 1.76634 59.5038 1.88382 59.9797C1.99309 60.4546 2.18233 60.8653 2.45151 61.212C2.7207 61.5587 3.06575 61.8408 3.48665 62.0582C3.9005 62.2663 4.36972 62.4069 4.8943 62.4801C5.39429 62.5498 5.86768 62.5406 6.31447 62.4525C6.76241 62.3562 7.16325 62.1781 7.517 61.9182C7.87076 61.6584 8.16922 61.3156 8.4124 60.8899C8.64738 60.4631 8.80658 59.9505 8.89 59.3522C9.01684 58.4424 8.94928 57.6684 8.6873 57.0302C8.41827 56.3828 7.98781 55.9342 7.39592 55.6846L7.57762 54.3813Z" fill="white"/>
<path d="M8.96897 50.1017L11.0293 52.1868L10.5841 53.4646L3.78754 46.561L4.46559 44.6151L14.0806 43.4301L13.6313 44.7195L10.7213 45.0727L8.96897 50.1017ZM8.11711 49.2265L9.50997 45.2291L4.75959 45.8086L8.11711 49.2265Z" fill="white"/>
<path d="M12.7424 39.3126L15.4909 40.9079L14.8802 41.9601L7.36478 37.5979L10.2563 32.6162C10.4848 32.2226 10.7462 31.8958 11.0405 31.6361C11.3277 31.3721 11.6394 31.1895 11.9758 31.0881C12.3091 30.9754 12.665 30.9475 13.0434 31.0044C13.426 31.0542 13.8212 31.1976 14.2292 31.4344C14.6146 31.6772 14.9166 31.9482 15.1353 32.2473C15.3539 32.5465 15.4899 32.8646 15.543 33.2017C15.6003 33.5316 15.5841 33.881 15.4944 34.2499C15.4046 34.6189 15.2476 34.9966 15.0232 35.3831L12.7424 39.3126ZM11.7976 38.7642L14.0535 34.8777C14.3235 34.4124 14.4179 33.9696 14.3366 33.5492C14.2552 33.1288 13.9819 32.7836 13.5167 32.5135C13.0586 32.2477 12.6233 32.1816 12.2108 32.3153C11.7911 32.4449 11.4462 32.7423 11.1762 33.2076L8.92029 37.0941L11.7976 38.7642Z" fill="white"/>
<path d="M24.7695 26.06L25.6023 26.7669L20.4208 32.8713L19.588 32.1643L21.765 29.5996L16.8059 25.3901L14.6288 27.9549L13.796 27.2479L18.9775 21.1436L19.8103 21.8506L17.5931 24.4626L22.5523 28.6721L24.7695 26.06Z" fill="white"/>
<path d="M25.7511 16.5275L30.6155 22.3632L29.6811 23.1421L24.8166 17.3064L21.8511 19.7784L21.1516 18.9393L28.0267 13.2084L28.7261 14.0476L25.7511 16.5275Z" fill="white"/>
<path d="M35.4163 15.646L35.5766 18.5729L34.3962 19.2344L33.8843 9.56019L35.682 8.55282L43.6661 14.0397L42.4749 14.7073L40.0621 13.0426L35.4163 15.646ZM35.3587 14.426L39.0516 12.3566L35.1109 9.64129L35.3587 14.426Z" fill="white"/>
<path d="M51.824 10.0853L52.181 11.1177L45.2121 13.5274L42.3724 5.31484L43.5221 4.91728L46.0049 12.0974L51.824 10.0853Z" fill="white"/>
</svg>
