<svg width="163" height="163" viewBox="0 0 163 163" fill="none" xmlns="http://www.w3.org/2000/svg">
<g clip-path="url(#clip0_1645_442)">
<g clip-path="url(#clip1_1645_442)">
<path d="M81.5 0C59.8898 0 39.1455 8.59188 23.877 23.8706C8.5928 39.1554 0.0043736 59.8845 0 81.5C0 103.106 8.5957 123.851 23.877 139.129C39.1455 154.408 59.8898 163 81.5 163C103.11 163 123.855 154.408 139.123 139.129C154.404 123.851 163 103.106 163 81.5C163 59.8936 154.404 39.1493 139.123 23.8706C123.855 8.59188 103.11 0 81.5 0Z" fill="url(#paint0_linear_1645_442)"/>
<path d="M36.892 80.6392C60.6543 70.2887 76.4959 63.4647 84.4167 60.1674C107.058 50.7529 111.757 49.1178 114.826 49.0624C115.501 49.0515 117.004 49.2184 117.984 50.0111C118.799 50.6796 119.029 51.5838 119.143 52.2186C119.245 52.8528 119.385 54.2981 119.271 55.4264C118.048 68.3136 112.738 99.5866 110.038 114.021C108.905 120.128 106.651 122.176 104.473 122.376C99.7361 122.812 96.145 119.249 91.5606 116.244C84.3912 111.542 80.3416 108.615 73.3759 104.027C65.3278 98.7245 70.5489 95.8096 75.1333 91.047C76.3303 89.8003 97.1892 70.8324 97.584 69.112C97.6349 68.8968 97.6859 68.0945 97.202 67.6717C96.7308 67.2477 96.0304 67.3929 95.521 67.5075C94.7952 67.6705 83.347 75.2449 61.1382 90.2294C57.8909 92.463 54.9493 93.5518 52.3006 93.4945C49.3971 93.4321 43.794 91.8492 39.6299 90.4968C34.5361 88.8376 30.4738 87.9602 30.8304 85.142C31.0087 83.675 33.0334 82.1737 36.892 80.6392Z" fill="white"/>
</g>
</g>
<g clip-path="url(#clip2_1645_442)">
<g clip-path="url(#clip3_1645_442)">
<path d="M81.5 0C59.8898 0 39.1455 8.59188 23.877 23.8706C8.5928 39.1554 0.0043736 59.8845 0 81.5C0 103.106 8.5957 123.851 23.877 139.129C39.1455 154.408 59.8898 163 81.5 163C103.11 163 123.855 154.408 139.123 139.129C154.404 123.851 163 103.106 163 81.5C163 59.8936 154.404 39.1493 139.123 23.8706C123.855 8.59188 103.11 0 81.5 0Z" fill="url(#paint1_linear_1645_442)"/>
<path d="M36.892 80.6392C60.6543 70.2887 76.4959 63.4647 84.4167 60.1674C107.058 50.7529 111.757 49.1178 114.826 49.0624C115.501 49.0515 117.004 49.2184 117.984 50.0111C118.799 50.6796 119.029 51.5838 119.143 52.2186C119.245 52.8528 119.385 54.2981 119.271 55.4264C118.048 68.3136 112.738 99.5866 110.038 114.021C108.905 120.128 106.651 122.176 104.473 122.376C99.7361 122.812 96.145 119.249 91.5606 116.244C84.3912 111.542 80.3416 108.615 73.3759 104.027C65.3278 98.7245 70.5489 95.8096 75.1333 91.047C76.3303 89.8003 97.1892 70.8324 97.584 69.112C97.6349 68.8968 97.6859 68.0945 97.202 67.6717C96.7308 67.2477 96.0304 67.3929 95.521 67.5075C94.7952 67.6705 83.347 75.2449 61.1382 90.2294C57.8909 92.463 54.9493 93.5518 52.3006 93.4945C49.3971 93.4321 43.794 91.8492 39.6299 90.4968C34.5361 88.8376 30.4738 87.9602 30.8304 85.142C31.0087 83.675 33.0334 82.1737 36.892 80.6392Z" fill="white"/>
</g>
</g>
<g clip-path="url(#clip4_1645_442)">
<g clip-path="url(#clip5_1645_442)">
<path d="M81.5 0C59.8898 0 39.1455 8.59188 23.877 23.8706C8.5928 39.1554 0.0043736 59.8845 0 81.5C0 103.106 8.5957 123.851 23.877 139.129C39.1455 154.408 59.8898 163 81.5 163C103.11 163 123.855 154.408 139.123 139.129C154.404 123.851 163 103.106 163 81.5C163 59.8936 154.404 39.1493 139.123 23.8706C123.855 8.59188 103.11 0 81.5 0Z" fill="url(#paint2_linear_1645_442)"/>
<path d="M36.892 80.6392C60.6543 70.2887 76.4959 63.4647 84.4167 60.1674C107.058 50.7529 111.757 49.1178 114.826 49.0624C115.501 49.0515 117.004 49.2184 117.984 50.0111C118.799 50.6796 119.029 51.5838 119.143 52.2186C119.245 52.8528 119.385 54.2981 119.271 55.4264C118.048 68.3136 112.738 99.5866 110.038 114.021C108.905 120.128 106.651 122.176 104.473 122.376C99.7361 122.812 96.145 119.249 91.5606 116.244C84.3912 111.542 80.3416 108.615 73.3759 104.027C65.3278 98.7245 70.5489 95.8096 75.1333 91.047C76.3303 89.8003 97.1892 70.8324 97.584 69.112C97.6349 68.8968 97.6859 68.0945 97.202 67.6717C96.7308 67.2477 96.0304 67.3929 95.521 67.5075C94.7952 67.6705 83.347 75.2449 61.1382 90.2294C57.8909 92.463 54.9493 93.5518 52.3006 93.4945C49.3971 93.4321 43.794 91.8492 39.6299 90.4968C34.5361 88.8376 30.4738 87.9602 30.8304 85.142C31.0087 83.675 33.0334 82.1737 36.892 80.6392Z" fill="white"/>
</g>
</g>
<g clip-path="url(#clip6_1645_442)">
<g clip-path="url(#clip7_1645_442)">
<path d="M81.5 0C59.8898 0 39.1455 8.59188 23.877 23.8706C8.5928 39.1554 0.0043736 59.8845 0 81.5C0 103.106 8.5957 123.851 23.877 139.129C39.1455 154.408 59.8898 163 81.5 163C103.11 163 123.855 154.408 139.123 139.129C154.404 123.851 163 103.106 163 81.5C163 59.8936 154.404 39.1493 139.123 23.8706C123.855 8.59188 103.11 0 81.5 0Z" fill="url(#paint3_linear_1645_442)"/>
<path d="M36.892 80.6392C60.6543 70.2887 76.4959 63.4647 84.4167 60.1674C107.058 50.7529 111.757 49.1178 114.826 49.0624C115.501 49.0515 117.004 49.2184 117.984 50.0111C118.799 50.6796 119.029 51.5838 119.143 52.2186C119.245 52.8528 119.385 54.2981 119.271 55.4264C118.048 68.3136 112.738 99.5866 110.038 114.021C108.905 120.128 106.651 122.176 104.473 122.376C99.7361 122.812 96.145 119.249 91.5606 116.244C84.3912 111.542 80.3416 108.615 73.3759 104.027C65.3278 98.7245 70.5489 95.8096 75.1333 91.047C76.3303 89.8003 97.1892 70.8324 97.584 69.112C97.6349 68.8968 97.6859 68.0945 97.202 67.6717C96.7308 67.2477 96.0304 67.3929 95.521 67.5075C94.7952 67.6705 83.347 75.2449 61.1382 90.2294C57.8909 92.463 54.9493 93.5518 52.3006 93.4945C49.3971 93.4321 43.794 91.8492 39.6299 90.4968C34.5361 88.8376 30.4738 87.9602 30.8304 85.142C31.0087 83.675 33.0334 82.1737 36.892 80.6392Z" fill="white"/>
</g>
</g>
<defs>
<linearGradient id="paint0_linear_1645_442" x1="8150" y1="0" x2="8150" y2="16300" gradientUnits="userSpaceOnUse">
<stop stop-color="#2AABEE"/>
<stop offset="1" stop-color="#229ED9"/>
</linearGradient>
<linearGradient id="paint1_linear_1645_442" x1="8150" y1="0" x2="8150" y2="16300" gradientUnits="userSpaceOnUse">
<stop stop-color="#2AABEE"/>
<stop offset="1" stop-color="#229ED9"/>
</linearGradient>
<linearGradient id="paint2_linear_1645_442" x1="8150" y1="0" x2="8150" y2="16300" gradientUnits="userSpaceOnUse">
<stop stop-color="#2AABEE"/>
<stop offset="1" stop-color="#229ED9"/>
</linearGradient>
<linearGradient id="paint3_linear_1645_442" x1="8150" y1="0" x2="8150" y2="16300" gradientUnits="userSpaceOnUse">
<stop stop-color="#2AABEE"/>
<stop offset="1" stop-color="#229ED9"/>
</linearGradient>
<clipPath id="clip0_1645_442">
<rect x="85.7168" width="77.2845" height="77.2845" rx="4.21552" fill="white"/>
</clipPath>
<clipPath id="clip1_1645_442">
<rect width="163" height="163" fill="white"/>
</clipPath>
<clipPath id="clip2_1645_442">
<rect x="85.7168" y="85.7155" width="77.2845" height="77.2845" rx="4.21552" fill="white"/>
</clipPath>
<clipPath id="clip3_1645_442">
<rect width="163" height="163" fill="white"/>
</clipPath>
<clipPath id="clip4_1645_442">
<rect y="85.7155" width="77.2845" height="77.2845" rx="4.21552" fill="white"/>
</clipPath>
<clipPath id="clip5_1645_442">
<rect width="163" height="163" fill="white"/>
</clipPath>
<clipPath id="clip6_1645_442">
<rect width="77.2845" height="77.2845" rx="4.21552" fill="white"/>
</clipPath>
<clipPath id="clip7_1645_442">
<rect width="163" height="163" fill="white"/>
</clipPath>
</defs>
</svg>
