<svg width="1920" height="1831" viewBox="0 0 1920 1831" fill="none" xmlns="http://www.w3.org/2000/svg">
<g opacity="0.4" clip-path="url(#clip0_1371_805)">
<path d="M2546.43 1209.01C2541.21 1202.63 2271.81 1045.31 1803 1277.89C1334.19 1510.47 1129.86 1085.05 888.58 685.671C647.29 286.293 126.677 482.188 126.558 482.045" stroke="white" stroke-width="0.00395228" stroke-linecap="round" stroke-linejoin="round"/>
<path d="M2541.02 1216.07C2535.84 1209.75 2262.19 1057.06 1795.69 1282.56C1329.19 1508.06 1124.9 1082.05 879.674 690.215C634.45 298.376 115.99 490.578 115.815 490.364" stroke="white" stroke-width="0.00790457" stroke-linecap="round" stroke-linejoin="round"/>
<path d="M2533.41 1224.78C2528.29 1218.52 2250.4 1070.46 1786.21 1288.88C1322.02 1507.3 1117.75 1080.71 868.595 696.41C619.438 312.108 103.131 500.619 102.898 500.334" stroke="white" stroke-width="0.0118569" stroke-linecap="round" stroke-linejoin="round"/>
<path d="M2524.04 1234.98C2518.97 1228.79 2236.83 1085.36 1774.95 1296.69C1313.07 1508.04 1108.82 1080.86 855.733 704.099C602.643 327.334 88.4897 512.149 88.1994 511.798" stroke="white" stroke-width="0.0158091" stroke-linecap="round" stroke-linejoin="round"/>
<path d="M2513.31 1246.51C2508.3 1240.38 2221.91 1101.57 1762.34 1305.84C1302.78 1510.1 1098.55 1082.34 841.53 713.119C584.505 343.892 72.5055 525.015 72.1534 524.592" stroke="white" stroke-width="0.0158091" stroke-linecap="round" stroke-linejoin="round"/>
<path d="M2501.65 1259.21C2496.68 1253.15 2206.05 1118.96 1748.79 1316.15C1291.54 1513.33 1087.34 1084.99 826.383 723.3C565.431 361.612 55.5789 539.042 55.17 538.548" stroke="white" stroke-width="0.0197614" stroke-linecap="round" stroke-linejoin="round"/>
<path d="M2489.47 1272.92C2484.56 1266.92 2189.67 1137.37 1734.73 1327.47C1279.78 1517.57 1075.61 1088.65 810.721 734.5C545.835 380.35 38.1362 554.088 37.6705 553.523" stroke="white" stroke-width="0.0237137" stroke-linecap="round" stroke-linejoin="round"/>
<path d="M2477.19 1287.47C2472.33 1281.54 2173.2 1156.61 1720.57 1339.64C1267.94 1522.66 1063.78 1093.15 794.963 746.541C526.143 399.929 20.5972 569.974 20.0747 569.339" stroke="white" stroke-width="0.027666" stroke-linecap="round" stroke-linejoin="round"/>
<path d="M2465.23 1302.71C2460.43 1296.85 2157.05 1176.55 1706.73 1352.49C1256.41 1528.44 1052.28 1098.35 779.529 759.276C506.776 420.202 3.38318 586.556 2.80391 585.85" stroke="white" stroke-width="0.027666" stroke-linecap="round" stroke-linejoin="round"/>
<path d="M2454.01 1318.48C2449.26 1312.68 2141.63 1197 1693.62 1365.87C1245.61 1534.74 1041.5 1104.06 764.818 772.524C488.131 440.987 -13.1086 603.649 -13.7497 602.871" stroke="white" stroke-width="0.0316183" stroke-linecap="round" stroke-linejoin="round"/>
<path d="M2443.94 1334.61C2439.24 1328.88 2127.37 1217.83 1681.67 1379.61C1235.98 1541.4 1031.9 1110.15 751.275 786.147C470.654 462.149 -28.4318 621.119 -29.1298 620.27" stroke="white" stroke-width="0.0355706" stroke-linecap="round" stroke-linejoin="round"/>
<path d="M2435.44 1350.94C2430.8 1345.27 2114.68 1238.85 1671.29 1393.56C1227.9 1548.27 1023.84 1116.42 739.29 799.962C454.736 483.501 -42.1972 638.779 -42.9519 637.859" stroke="white" stroke-width="0.0395228" stroke-linecap="round" stroke-linejoin="round"/>
<path d="M2428.94 1367.32C2424.35 1361.72 2103.97 1259.92 1662.9 1407.55C1221.83 1555.18 1017.8 1122.75 729.308 813.832C440.82 504.909 -53.9599 656.496 -54.7714 655.505" stroke="white" stroke-width="0.0395228" stroke-linecap="round" stroke-linejoin="round"/>
<path d="M2424.83 1383.58C2420.3 1378.04 2095.67 1280.87 1656.91 1421.42C1218.16 1561.97 1014.14 1128.96 721.722 827.579C429.3 526.194 -63.327 674.089 -64.2003 673.026" stroke="white" stroke-width="0.0434751" stroke-linecap="round" stroke-linejoin="round"/>
<path d="M2423.56 1399.56C2419.07 1394.08 2090.2 1301.54 1653.75 1435.01C1217.3 1568.48 1013.31 1134.88 716.963 841.042C420.608 547.194 -69.8659 691.397 -70.796 690.263" stroke="white" stroke-width="0.0474274" stroke-linecap="round" stroke-linejoin="round"/>
<path d="M2425.53 1415.09C2421.09 1409.68 2087.97 1321.77 1653.84 1448.16C1219.7 1574.55 1015.74 1140.37 715.451 854.064C415.168 567.756 -73.1584 708.265 -74.1453 707.061" stroke="white" stroke-width="0.0513797" stroke-linecap="round" stroke-linejoin="round"/>
<path d="M2431.15 1430.03C2426.77 1424.68 2089.41 1341.39 1657.58 1460.71C1225.75 1580.02 1021.81 1145.26 717.595 866.491C413.378 587.72 -72.795 724.538 -73.8387 723.262" stroke="white" stroke-width="0.0513797" stroke-linecap="round" stroke-linejoin="round"/>
<path d="M2440.85 1444.21C2436.52 1438.92 2094.91 1360.26 1665.4 1472.5C1235.88 1584.73 1031.97 1149.39 723.812 878.154C415.661 606.921 -68.3589 740.047 -69.4594 738.701" stroke="white" stroke-width="0.055332" stroke-linecap="round" stroke-linejoin="round"/>
<path d="M2455.05 1457.46C2450.77 1452.24 2104.92 1378.21 1677.71 1483.36C1250.51 1588.51 1046.62 1152.59 734.533 888.899C422.448 625.204 -59.4183 754.638 -60.5806 753.22" stroke="white" stroke-width="0.0592843" stroke-linecap="round" stroke-linejoin="round"/>
<path d="M2474.16 1469.63C2469.93 1464.47 2119.83 1395.07 1694.94 1493.14C1270.05 1591.21 1066.18 1154.71 750.163 898.549C434.145 642.392 -45.5685 768.134 -46.7876 766.645" stroke="white" stroke-width="0.0632365" stroke-linecap="round" stroke-linejoin="round"/>
<path d="M2498.6 1480.56C2494.43 1475.46 2140.07 1410.69 1717.5 1501.68C1294.92 1592.68 1091.07 1155.58 771.12 906.969C451.169 658.35 -26.3867 780.401 -27.6676 778.84" stroke="white" stroke-width="0.0632365" stroke-linecap="round" stroke-linejoin="round"/>
<path d="M2522.05 1488.64C2517.94 1483.61 2159.33 1423.46 1739.07 1507.38C1318.8 1591.3 1114.98 1153.62 791.098 912.543C467.213 671.461 -8.18915 789.821 -9.52689 788.189" stroke="white" stroke-width="0.0671888" stroke-linecap="round" stroke-linejoin="round"/>
<path d="M2538.49 1494.41C2534.43 1489.45 2171.58 1433.93 1753.62 1510.76C1335.66 1587.6 1131.87 1149.34 804.048 915.798C476.229 682.254 2.97984 796.922 1.58024 795.218" stroke="white" stroke-width="0.0711411" stroke-linecap="round" stroke-linejoin="round"/>
<path d="M2554.68 1500.07C2550.67 1495.16 2183.57 1444.27 1767.92 1514.03C1352.28 1583.79 1148.51 1144.95 816.759 918.942C485.007 692.936 13.911 803.912 12.4546 802.137" stroke="white" stroke-width="0.0750934" stroke-linecap="round" stroke-linejoin="round"/>
<path d="M2570.56 1505.58C2566.6 1500.75 2195.25 1454.48 1781.92 1517.16C1368.58 1579.83 1164.84 1140.41 829.152 921.941C493.466 703.473 24.5233 810.757 23.0102 808.911" stroke="white" stroke-width="0.0750934" stroke-linecap="round" stroke-linejoin="round"/>
<path d="M2586.08 1510.94C2582.17 1506.17 2206.58 1464.54 1795.56 1520.13C1384.53 1575.73 1180.81 1135.73 841.195 924.797C501.58 713.868 34.7851 817.459 33.2151 815.542" stroke="white" stroke-width="0.0790457" stroke-linecap="round" stroke-linejoin="round"/>
<path d="M2601.18 1516.13C2597.33 1511.42 2217.49 1474.41 1808.78 1522.93C1400.07 1571.46 1196.37 1130.86 852.818 927.469C509.27 724.078 44.6283 823.977 42.9965 821.988" stroke="white" stroke-width="0.082998" stroke-linecap="round" stroke-linejoin="round"/>
<path d="M2615.83 1521.12C2612.03 1516.48 2227.94 1484.09 1821.54 1525.53C1415.14 1566.97 1211.46 1125.8 863.983 929.944C516.501 734.091 54.0125 830.298 52.3239 828.238" stroke="white" stroke-width="0.0869502" stroke-linecap="round" stroke-linejoin="round"/>
<path d="M2629.96 1525.9C2626.21 1521.32 2237.87 1493.56 1833.79 1527.92C1429.7 1562.28 1226.05 1120.52 874.631 932.207C523.216 743.891 62.8804 836.406 61.1351 834.276" stroke="white" stroke-width="0.0869502" stroke-linecap="round" stroke-linejoin="round"/>
<path d="M2643.51 1530.44C2639.82 1525.93 2247.23 1502.8 1845.46 1530.08C1443.69 1557.37 1240.06 1115.02 884.709 934.245C529.36 753.467 71.1774 842.291 69.3752 840.09" stroke="white" stroke-width="0.0909025" stroke-linecap="round" stroke-linejoin="round"/>
<path d="M2656.45 1534.73C2652.81 1530.28 2255.97 1511.78 1856.51 1531.98C1457.05 1552.19 1253.44 1109.26 894.156 936.021C534.873 762.781 78.8438 847.913 76.9849 845.641" stroke="white" stroke-width="0.0948548" stroke-linecap="round" stroke-linejoin="round"/>
<path d="M2668.7 1538.77C2665.11 1534.39 2264.02 1520.51 1866.88 1533.64C1469.72 1546.76 1266.15 1103.25 902.929 937.55C539.713 771.848 85.8364 853.287 83.9157 850.943" stroke="white" stroke-width="0.0988071" stroke-linecap="round" stroke-linejoin="round"/>
<path d="M2680.22 1542.53C2676.68 1538.21 2271.35 1528.96 1876.51 1535C1481.67 1541.05 1278.11 1096.96 910.965 938.792C543.815 780.627 92.0918 858.375 90.1142 855.96" stroke="white" stroke-width="0.0988071" stroke-linecap="round" stroke-linejoin="round"/>
<path d="M2690.95 1546C2687.47 1541.75 2277.89 1537.12 1885.36 1536.09C1492.83 1535.06 1289.3 1090.38 918.22 939.757C547.137 789.13 97.5664 863.186 95.532 860.701" stroke="white" stroke-width="0.102759" stroke-linecap="round" stroke-linejoin="round"/>
<path d="M2700.85 1549.18C2697.42 1544.99 2283.59 1544.99 1893.37 1536.88C1503.16 1528.77 1299.65 1083.51 924.633 940.422C549.616 797.332 102.199 867.697 100.107 865.14" stroke="white" stroke-width="0.106712" stroke-linecap="round" stroke-linejoin="round"/>
<path d="M2709.84 1552.05C2706.46 1547.93 2288.38 1552.56 1900.48 1537.37C1512.58 1522.17 1309.09 1076.33 930.142 940.782C551.197 805.232 105.928 871.903 103.775 869.274" stroke="white" stroke-width="0.106712" stroke-linecap="round" stroke-linejoin="round"/>
<path d="M2717.87 1554.62C2714.54 1550.56 2292.22 1559.82 1906.63 1537.55C1521.04 1515.27 1317.58 1068.85 934.7 940.837C551.821 812.825 108.705 875.804 106.495 873.105" stroke="white" stroke-width="0.110664" stroke-linecap="round" stroke-linejoin="round"/>
<path d="M2724.89 1556.89C2721.61 1552.89 2295.05 1566.78 1911.76 1537.43C1528.48 1508.08 1325.04 1061.07 938.23 940.592C551.417 820.117 110.454 879.404 108.188 876.634" stroke="white" stroke-width="0.114616" stroke-linecap="round" stroke-linejoin="round"/>
<path d="M2730.83 1558.86C2727.61 1554.93 2296.79 1573.44 1915.82 1537.01C1534.85 1500.59 1331.44 1052.99 940.693 940.056C549.947 827.12 111.137 882.715 108.814 879.874" stroke="white" stroke-width="0.118569" stroke-linecap="round" stroke-linejoin="round"/>
<path d="M2735.64 1560.53C2732.47 1556.66 2297.41 1579.81 1918.75 1536.3C1540.1 1492.79 1336.7 1044.61 942.023 939.21C547.343 833.811 110.687 885.715 108.307 882.803" stroke="white" stroke-width="0.118569" stroke-linecap="round" stroke-linejoin="round"/>
<path d="M2739.29 1561.76C2736.18 1557.96 2296.87 1585.73 1920.52 1535.14C1544.17 1484.55 1340.81 1035.79 942.194 937.931C543.581 840.07 109.077 888.281 106.635 885.297" stroke="white" stroke-width="0.122521" stroke-linecap="round" stroke-linejoin="round"/>
<path d="M2741.75 1562.51C2738.69 1558.78 2295.13 1591.17 1921.1 1533.5C1547.06 1475.83 1343.72 1026.49 941.172 936.167C538.625 845.843 106.274 890.363 103.776 887.308" stroke="white" stroke-width="0.126473" stroke-linecap="round" stroke-linejoin="round"/>
<path d="M2742.96 1562.76C2739.95 1559.09 2292.14 1596.1 1920.43 1531.36C1548.7 1466.62 1345.38 1016.69 938.906 933.906C532.425 851.121 102.228 891.949 99.6726 888.823" stroke="white" stroke-width="0.130425" stroke-linecap="round" stroke-linejoin="round"/>
<path d="M2742.87 1562.46C2739.92 1558.85 2287.86 1600.5 1918.45 1528.67C1549.04 1456.85 1345.74 1006.34 935.33 931.089C524.915 855.841 96.8711 892.978 94.2588 889.781" stroke="white" stroke-width="0.130425" stroke-linecap="round" stroke-linejoin="round"/>
<path d="M2741.44 1561.58C2738.54 1558.04 2282.23 1604.32 1915.13 1525.41C1548.03 1446.51 1344.76 995.413 930.419 927.704C516.071 859.994 90.1802 893.439 87.506 890.17" stroke="white" stroke-width="0.134378" stroke-linecap="round" stroke-linejoin="round"/>
<path d="M2738.6 1560.1C2735.75 1556.62 2275.2 1607.53 1910.41 1521.54C1545.63 1435.56 1342.38 983.879 924.097 923.706C505.821 863.536 82.0777 893.287 79.3467 889.947" stroke="white" stroke-width="0.13833" stroke-linecap="round" stroke-linejoin="round"/>
<path d="M2734.33 1557.99C2731.53 1554.58 2266.72 1610.11 1904.25 1517.05C1541.78 1423.99 1338.55 971.726 916.34 919.092C494.13 866.459 72.5401 892.519 69.7523 889.108" stroke="white" stroke-width="0.142282" stroke-linecap="round" stroke-linejoin="round"/>
<path d="M2728.55 1555.21C2725.81 1551.86 2256.76 1612.02 1896.59 1511.88C1536.43 1411.74 1333.23 958.89 907.084 913.794C480.94 868.698 61.5036 891.066 58.6591 887.584" stroke="white" stroke-width="0.142282" stroke-linecap="round" stroke-linejoin="round"/>
<path d="M2721.24 1551.69C2718.55 1548.4 2245.25 1613.19 1887.4 1505.97C1529.55 1398.74 1326.37 945.315 896.294 907.762C466.217 870.204 48.9332 888.88 46.0319 885.328" stroke="white" stroke-width="0.146234" stroke-linecap="round" stroke-linejoin="round"/>
<path d="M2712.36 1547.37C2709.72 1544.15 2232.18 1613.56 1876.64 1499.26C1521.09 1384.96 1317.94 930.947 883.932 900.927C449.921 870.908 34.7905 885.891 31.8273 882.267" stroke="white" stroke-width="0.150187" stroke-linecap="round" stroke-linejoin="round"/>
<path d="M2701.85 1542.24C2699.26 1539.09 2217.47 1613.13 1864.24 1491.75C1511.01 1370.37 1307.89 915.773 869.941 893.296C431.997 870.814 19.0244 882.107 15.9994 878.411" stroke="white" stroke-width="0.154139" stroke-linecap="round" stroke-linejoin="round"/>
<path d="M2689.64 1536.31C2687.11 1533.22 2201.07 1611.89 1850.15 1483.43C1499.23 1354.97 1296.13 899.791 854.249 884.846C412.371 869.902 1.55134 877.504 -1.53046 873.736" stroke="white" stroke-width="0.154139" stroke-linecap="round" stroke-linejoin="round"/>
<path d="M2675.7 1529.56C2673.22 1526.53 2182.93 1609.83 1834.32 1474.29C1485.72 1338.75 1282.64 882.989 836.826 875.582C391.015 868.176 -17.6518 872.085 -20.7917 868.252" stroke="white" stroke-width="0.158091" stroke-linecap="round" stroke-linejoin="round"/>
<path d="M2659.95 1521.99C2657.52 1519.03 2162.98 1606.95 1816.69 1464.33C1470.4 1321.71 1267.34 865.368 817.599 865.501C367.853 865.632 -38.6599 865.849 -41.8616 861.944" stroke="white" stroke-width="0.162044" stroke-linecap="round" stroke-linejoin="round"/>
<path d="M2642.34 1513.58C2639.97 1510.68 2141.18 1603.23 1797.2 1453.53C1453.22 1303.84 1250.19 846.91 796.511 854.579C342.832 862.248 -61.5279 858.773 -64.7865 854.797" stroke="white" stroke-width="0.165996" stroke-linecap="round" stroke-linejoin="round"/>
<path d="M2622.83 1504.31C2620.51 1501.48 2117.48 1598.65 1775.81 1441.88C1434.14 1285.1 1231.13 827.593 773.521 842.802C315.914 858.01 -86.298 850.842 -89.6133 846.795" stroke="white" stroke-width="0.165996" stroke-linecap="round" stroke-linejoin="round"/>
<path d="M2601.36 1494.18C2599.09 1491.41 2091.81 1593.21 1752.45 1429.35C1413.09 1265.5 1210.1 807.403 748.563 830.149C287.022 852.895 -113.037 842.036 -116.409 837.918" stroke="white" stroke-width="0.169948" stroke-linecap="round" stroke-linejoin="round"/>
<path d="M2577.87 1483.15C2575.65 1480.45 2064.12 1586.88 1727.08 1415.94C1390.03 1245.01 1187.07 786.332 721.597 816.615C256.122 846.899 -141.784 832.348 -145.212 828.159" stroke="white" stroke-width="0.1739" stroke-linecap="round" stroke-linejoin="round"/>
<path d="M2552.31 1471.23C2550.15 1468.58 2034.37 1579.64 1699.63 1401.63C1364.9 1223.62 1161.96 764.355 692.551 802.176C223.143 839.998 -172.61 821.755 -176.101 817.494" stroke="white" stroke-width="0.177853" stroke-linecap="round" stroke-linejoin="round"/>
<path d="M2524.63 1458.37C2522.52 1455.79 2002.5 1571.47 1670.07 1386.38C1337.65 1201.29 1134.74 741.448 661.393 786.807C188.052 832.166 -205.548 810.231 -209.096 805.9" stroke="white" stroke-width="0.177853" stroke-linecap="round" stroke-linejoin="round"/>
<path d="M2494.78 1444.57C2492.72 1442.05 1968.45 1562.37 1638.34 1370.19C1308.23 1178.02 1105.34 717.594 628.064 770.491C150.789 823.388 -240.657 797.756 -244.262 793.359" stroke="white" stroke-width="0.181805" stroke-linecap="round" stroke-linejoin="round"/>
<path d="M2462.7 1429.8C2460.7 1427.35 1932.18 1552.29 1604.37 1353.04C1276.57 1153.79 1073.71 692.777 592.502 753.212C111.293 813.647 -277.999 784.324 -281.662 779.855" stroke="white" stroke-width="0.185757" stroke-linecap="round" stroke-linejoin="round"/>
<path d="M2428.34 1414.04C2426.39 1411.66 1893.62 1541.23 1568.13 1334.9C1242.64 1128.57 1039.8 666.973 554.658 734.946C69.5158 802.918 -317.623 769.903 -321.348 765.363" stroke="white" stroke-width="0.18971" stroke-linecap="round" stroke-linejoin="round"/>
<path d="M2391.66 1397.28C2389.76 1394.96 1852.74 1529.15 1529.57 1315.75C1206.39 1102.34 1003.57 640.16 514.499 715.672C25.4227 791.182 -359.563 754.475 -363.344 749.864" stroke="white" stroke-width="0.18971" stroke-linecap="round" stroke-linejoin="round"/>
<path d="M2352.59 1379.49C2350.74 1377.23 1809.48 1516.05 1488.61 1295.57C1167.75 1075.08 964.952 612.317 471.942 695.365C-21.0673 778.413 -403.9 738.014 -407.738 733.332" stroke="white" stroke-width="0.193662" stroke-linecap="round" stroke-linejoin="round"/>
<path d="M2305.55 1357.73C2303.76 1355.54 1758.24 1498.99 1439.69 1271.42C1121.13 1043.86 918.366 580.509 421.427 671.101C-75.5117 761.688 -456.197 717.596 -460.091 712.843" stroke="white" stroke-width="0.197614" stroke-linecap="round" stroke-linejoin="round"/>
<path d="M2258.54 1335.5C2256.8 1333.37 1707.04 1481.44 1390.79 1246.8C1074.55 1012.16 871.806 548.228 370.929 646.352C-129.943 744.477 -508.475 696.693 -512.426 691.869" stroke="white" stroke-width="0.197614" stroke-linecap="round" stroke-linejoin="round"/>
<path d="M2216.45 1315.2C2214.77 1313.14 1660.76 1465.84 1346.83 1224.12C1032.89 982.393 830.173 517.878 325.367 623.541C-179.438 729.204 -555.817 677.728 -559.83 672.832" stroke="white" stroke-width="0.201566" stroke-linecap="round" stroke-linejoin="round"/>
<path d="M2179.07 1296.78C2177.44 1294.78 1619.18 1452.11 1307.57 1203.31C995.946 954.503 793.251 489.406 284.507 602.606C-224.232 715.806 -598.458 660.639 -602.528 655.672" stroke="white" stroke-width="0.205519" stroke-linecap="round" stroke-linejoin="round"/>
<path d="M2146.19 1280.14C2144.61 1278.21 1582.11 1440.17 1272.8 1184.28C963.491 928.402 760.817 462.721 248.144 583.46C-264.528 704.198 -636.601 645.339 -640.728 640.301" stroke="white" stroke-width="0.209471" stroke-linecap="round" stroke-linejoin="round"/>
<path d="M2117.6 1265.23C2116.07 1263.36 1549.31 1429.95 1242.32 1166.99C935.318 904.026 732.67 437.764 216.064 566.04C-300.542 694.316 -670.462 631.765 -674.645 626.657" stroke="white" stroke-width="0.209471" stroke-linecap="round" stroke-linejoin="round"/>
<path d="M2093.06 1251.98C2091.59 1250.17 1520.59 1421.38 1215.9 1151.34C911.218 881.303 708.592 414.453 188.052 550.267C-332.488 686.081 -700.25 619.844 -704.495 614.658" stroke="white" stroke-width="0.213423" stroke-linecap="round" stroke-linejoin="round"/>
<path d="M2072.39 1240.29C2070.96 1238.55 1495.71 1414.39 1193.34 1137.27C890.972 860.151 688.37 392.724 163.897 536.075C-360.577 679.427 -726.19 609.492 -730.492 604.241" stroke="white" stroke-width="0.217376" stroke-linecap="round" stroke-linejoin="round"/>
<path d="M2055.35 1230.12C2053.98 1228.44 1474.49 1408.91 1174.43 1124.71C874.364 840.512 671.784 372.497 143.382 523.388C-385.025 674.277 -748.485 600.65 -752.844 595.328" stroke="white" stroke-width="0.221328" stroke-linecap="round" stroke-linejoin="round"/>
<path d="M2041.75 1221.38C2040.43 1219.76 1456.69 1404.86 1158.94 1113.58C861.187 822.301 658.634 353.703 126.298 512.132C-406.043 670.559 -767.35 593.24 -771.771 587.846" stroke="white" stroke-width="0.221328" stroke-linecap="round" stroke-linejoin="round"/>
<path d="M2031.36 1213.99C2030.09 1212.44 1442.1 1402.17 1146.67 1103.81C851.228 805.448 648.695 336.267 112.426 502.233C-423.849 668.198 -783.002 587.188 -787.48 581.722" stroke="white" stroke-width="0.22528" stroke-linecap="round" stroke-linejoin="round"/>
<path d="M2023.97 1207.89C2022.76 1206.41 1430.52 1400.75 1137.4 1095.32C844.269 789.883 641.764 320.116 101.561 493.62C-438.647 667.122 -795.649 582.425 -800.182 576.884" stroke="white" stroke-width="0.229232" stroke-linecap="round" stroke-linejoin="round"/>
<path d="M2019.38 1203C2018.21 1201.58 1421.73 1400.56 1130.91 1088.04C840.099 775.527 637.618 305.182 93.4765 486.223C-450.66 667.265 -805.508 578.87 -810.104 573.262" stroke="white" stroke-width="0.233185" stroke-linecap="round" stroke-linejoin="round"/>
<path d="M2017.36 1199.26C2016.25 1197.9 1415.52 1401.5 1127.01 1081.91C838.512 762.312 636.052 291.384 87.9815 479.964C-460.094 668.542 -812.788 576.456 -817.441 570.777" stroke="white" stroke-width="0.233185" stroke-linecap="round" stroke-linejoin="round"/>
<path d="M2017.69 1196.57C2016.64 1195.28 1411.66 1403.51 1125.46 1076.84C839.274 750.164 636.836 278.648 84.8327 474.765C-467.166 670.884 -817.712 575.105 -822.422 569.355" stroke="white" stroke-width="0.237137" stroke-linecap="round" stroke-linejoin="round"/>
<path d="M2020.18 1194.88C2019.18 1193.66 1409.95 1406.51 1126.07 1072.76C842.193 739.012 639.781 266.915 83.8441 470.57C-472.092 674.22 -820.482 574.755 -825.247 568.93" stroke="white" stroke-width="0.241089" stroke-linecap="round" stroke-linejoin="round"/>
<path d="M2024.62 1194.12C2023.67 1192.96 1410.19 1410.44 1128.62 1069.61C847.052 728.776 644.662 256.091 84.7961 467.285C-475.075 678.478 -821.316 575.32 -826.139 569.424" stroke="white" stroke-width="0.245042" stroke-linecap="round" stroke-linejoin="round"/>
<path d="M2030.76 1194.2C2029.86 1193.1 1412.14 1415.21 1132.88 1067.3C853.629 719.387 651.264 246.124 87.4594 464.855C-476.34 683.587 -820.427 576.732 -825.313 570.769" stroke="white" stroke-width="0.245042" stroke-linecap="round" stroke-linejoin="round"/>
<path d="M2038.43 1195.05C2037.58 1194.02 1415.61 1420.76 1138.67 1065.77C861.72 710.775 659.376 236.929 91.6429 463.199C-476.095 689.467 -818.029 578.921 -822.966 572.888" stroke="white" stroke-width="0.248994" stroke-linecap="round" stroke-linejoin="round"/>
<path d="M2047.38 1196.6C2046.59 1195.64 1420.37 1427 1145.74 1064.93C871.106 702.863 668.788 228.435 97.1163 462.241C-474.55 696.049 -814.331 581.811 -819.33 575.705" stroke="white" stroke-width="0.252946" stroke-linecap="round" stroke-linejoin="round"/>
<path d="M2057.42 1198.79C2056.68 1197.89 1426.21 1433.88 1153.89 1064.73C881.57 695.579 679.279 220.565 103.678 461.91C-471.927 703.254 -809.556 585.329 -814.612 579.153" stroke="white" stroke-width="0.256898" stroke-linecap="round" stroke-linejoin="round"/>
<path d="M2068.33 1201.53C2067.65 1200.69 1432.93 1441.31 1162.92 1065.08C892.912 688.852 690.642 213.255 111.108 462.138C-468.431 711.02 -803.901 589.399 -809.018 583.151" stroke="white" stroke-width="0.256898" stroke-linecap="round" stroke-linejoin="round"/>
<path d="M2079.9 1204.75C2079.27 1203.98 1440.3 1449.22 1172.6 1065.92C904.909 682.606 702.664 206.426 119.197 462.847C-464.276 719.267 -797.597 593.953 -802.772 587.634" stroke="white" stroke-width="0.260851" stroke-linecap="round" stroke-linejoin="round"/>
<path d="M2091.91 1208.38C2091.33 1207.67 1448.12 1457.54 1182.73 1067.16C917.346 676.77 715.127 200.009 127.721 463.966C-459.679 727.92 -790.849 598.919 -796.08 592.529" stroke="white" stroke-width="0.264803" stroke-linecap="round" stroke-linejoin="round"/>
<path d="M2104.15 1212.34C2103.63 1211.7 1456.16 1466.2 1193.09 1068.73C930.02 671.272 727.823 193.922 136.489 465.419C-454.846 736.916 -783.866 604.216 -789.154 597.756" stroke="white" stroke-width="0.268755" stroke-linecap="round" stroke-linejoin="round"/>
<path d="M2116.41 1216.57C2115.94 1215.99 1464.23 1475.12 1203.47 1070.58C942.707 666.035 740.531 188.102 145.263 467.137C-450.006 746.171 -776.868 609.781 -782.213 603.25" stroke="white" stroke-width="0.268755" stroke-linecap="round" stroke-linejoin="round"/>
<path d="M2128.48 1221C2128.05 1220.48 1472.1 1484.24 1213.65 1072.61C955.197 660.985 753.047 182.471 153.845 469.043C-445.357 755.615 -770.066 615.533 -775.473 608.93" stroke="white" stroke-width="0.272708" stroke-linecap="round" stroke-linejoin="round"/>
<path d="M2140.13 1225.53C2139.76 1225.08 1479.56 1493.46 1223.41 1074.76C967.28 656.053 765.156 176.957 162.021 471.066C-441.115 765.176 -763.671 621.403 -769.134 614.729" stroke="white" stroke-width="0.27666" stroke-linecap="round" stroke-linejoin="round"/>
<path d="M2151.16 1230.11C2150.84 1229.72 1486.39 1502.73 1232.56 1076.95C978.74 651.169 776.637 171.489 169.568 473.137C-437.496 774.786 -757.904 627.319 -763.424 620.574" stroke="white" stroke-width="0.280612" stroke-linecap="round" stroke-linejoin="round"/>
<path d="M2161.36 1234.66C2161.09 1234.34 1492.39 1511.98 1240.88 1079.12C989.363 646.255 787.287 165.989 176.284 475.174C-434.714 784.361 -752.969 633.203 -758.55 626.385" stroke="white" stroke-width="0.280612" stroke-linecap="round" stroke-linejoin="round"/>
<path d="M2170.51 1239.11C2170.29 1238.85 1497.35 1521.12 1248.14 1081.18C998.939 641.238 796.889 160.389 181.952 477.112C-432.979 793.837 -749.081 638.987 -754.72 632.099" stroke="white" stroke-width="0.284564" stroke-linecap="round" stroke-linejoin="round"/>
<path d="M2178.39 1243.39C2178.23 1243.19 1501.03 1530.09 1254.14 1083.07C1007.25 636.047 805.221 154.616 186.356 478.878C-432.513 803.139 -746.456 644.593 -752.158 637.638" stroke="white" stroke-width="0.288517" stroke-linecap="round" stroke-linejoin="round"/>
<path d="M2184.8 1247.41C2184.69 1247.28 1503.25 1538.8 1258.67 1084.7C1014.09 630.604 812.086 148.591 189.282 480.39C-433.516 812.19 -745.307 649.957 -751.064 642.926" stroke="white" stroke-width="0.292469" stroke-linecap="round" stroke-linejoin="round"/>
<path d="M2189.52 1251.12C2189.47 1251.05 1503.78 1547.2 1261.51 1086.02C1019.24 624.846 817.255 142.248 190.523 481.586C-436.209 820.924 -745.852 654.998 -751.661 647.897" stroke="white" stroke-width="0.292469" stroke-linecap="round" stroke-linejoin="round"/>
<path d="M2192.34 1254.43C2192.34 1254.43 1502.4 1555.2 1262.44 1086.95C1022.49 618.693 820.527 135.508 189.861 482.384C-440.804 829.26 -748.294 659.642 -754.165 652.469" stroke="white" stroke-width="0.296421" stroke-linecap="round" stroke-linejoin="round"/>
</g>
<defs>
<clipPath id="clip0_1371_805">
<rect width="3705" height="865" fill="white" transform="translate(-667.148) rotate(15.6162)"/>
</clipPath>
</defs>
</svg>
